<svg xmlns="http://www.w3.org/2000/svg" xmlns:xlink="http://www.w3.org/1999/xlink" width="6912" zoomAndPan="magnify" viewBox="0 0 5184 2592.000001" height="3456" preserveAspectRatio="xMidYMid meet" version="1.0"><defs><g/><clipPath id="844b7feb92"><path d="M 40 1068 L 542 1068 L 542 1570 L 40 1570 Z M 40 1068 " clip-rule="nonzero"/></clipPath><clipPath id="ae401e5f7c"><path d="M 290.722656 787.40625 L 822.441406 1319.121094 L 290.722656 1850.839844 L -240.992188 1319.121094 Z M 290.722656 787.40625 " clip-rule="nonzero"/></clipPath><clipPath id="d7f3bb3f84"><path d="M 290.722656 787.40625 L 822.441406 1319.121094 L 290.722656 1850.839844 L -240.992188 1319.121094 Z M 290.722656 787.40625 " clip-rule="nonzero"/></clipPath><clipPath id="d47438e6ca"><path d="M 290.722656 787.40625 L 822.441406 1319.121094 L 290.722656 1850.839844 L -240.992188 1319.121094 Z M 290.722656 787.40625 " clip-rule="nonzero"/></clipPath><clipPath id="53411f243e"><rect x="0" width="4463" y="0" height="916"/></clipPath></defs><g clip-path="url(#844b7feb92)"><g clip-path="url(#ae401e5f7c)"><g clip-path="url(#d7f3bb3f84)"><g clip-path="url(#d47438e6ca)"><path fill="#ffffff" d="M 229.386719 1380.457031 L 229.386719 1257.785156 L 352.058594 1257.785156 L 352.058594 1380.457031 Z M 350.839844 1164.847656 L 350.839844 1068.660156 L 488.167969 1068.796875 C 495.695312 1068.796875 502.605469 1070.246094 508.894531 1073.136719 C 515.1875 1076.03125 520.671875 1079.820312 525.347656 1084.496094 C 530.027344 1089.175781 533.8125 1094.660156 536.710938 1100.953125 C 539.601562 1107.242188 541.046875 1114.148438 541.050781 1121.679688 L 541.183594 1259.003906 L 445 1259.003906 L 445 1164.847656 Z M 40.398438 1259.136719 L 40.398438 1121.679688 C 40.398438 1114.148438 41.847656 1107.242188 44.738281 1100.953125 C 47.632812 1094.660156 51.421875 1089.175781 56.097656 1084.496094 C 60.777344 1079.820312 66.261719 1076.03125 72.554688 1073.136719 C 78.84375 1070.246094 85.75 1068.796875 93.28125 1068.796875 L 230.738281 1068.796875 L 230.605469 1164.847656 L 136.449219 1164.847656 L 136.449219 1259.003906 Z M 350.839844 1569.582031 L 350.839844 1473.398438 L 445 1473.398438 L 445 1379.238281 L 541.183594 1379.238281 L 541.050781 1516.566406 C 541.046875 1524.09375 539.601562 1531.003906 536.710938 1537.292969 C 533.8125 1543.585938 530.027344 1549.070312 525.347656 1553.746094 C 520.671875 1558.425781 515.1875 1562.210938 508.894531 1565.109375 C 502.605469 1568 495.695312 1569.445312 488.167969 1569.449219 Z M 40.398438 1516.566406 L 40.398438 1379.105469 L 136.449219 1379.238281 L 136.449219 1473.398438 L 230.605469 1473.398438 L 230.738281 1569.449219 L 93.28125 1569.449219 C 85.75 1569.445312 78.84375 1568 72.554688 1565.109375 C 66.261719 1562.210938 60.777344 1558.425781 56.097656 1553.746094 C 51.421875 1549.070312 47.632812 1543.585938 44.738281 1537.292969 C 41.847656 1531.003906 40.398438 1524.09375 40.398438 1516.566406 Z M 40.398438 1516.566406 " fill-opacity="1" fill-rule="nonzero"/></g></g></g></g><g transform="matrix(1, 0, 0, 1, 720, 834)"><g clip-path="url(#53411f243e)"><g fill="#ffffff" fill-opacity="1"><g transform="translate(0.5462, 732.705939)"><g><path d="M 131.375 0 L 9.96875 -407.390625 L 125.46875 -407.390625 L 161.25 -258.671875 C 167.65625 -231.117188 174.363281 -201.535156 181.375 -169.921875 C 188.382812 -138.316406 194.960938 -104.1875 201.109375 -67.53125 L 187.828125 -67.53125 C 194.472656 -103.695312 201.546875 -137.644531 209.046875 -169.375 C 216.546875 -201.113281 223.738281 -230.878906 230.625 -258.671875 L 268.265625 -407.390625 L 369.375 -407.390625 L 405.90625 -258.671875 C 412.550781 -230.878906 419.625 -201.175781 427.125 -169.5625 C 434.632812 -137.945312 441.707031 -103.9375 448.34375 -67.53125 L 435.4375 -67.53125 C 441.582031 -103.695312 447.972656 -137.582031 454.609375 -169.1875 C 461.253906 -200.800781 467.773438 -230.628906 474.171875 -258.671875 L 509.96875 -407.390625 L 627.3125 -407.390625 L 505.171875 0 L 392.625 0 L 347.234375 -158.3125 C 342.804688 -173.800781 338.378906 -190.832031 333.953125 -209.40625 C 329.523438 -227.988281 325.21875 -246.875 321.03125 -266.0625 C 316.851562 -285.25 312.675781 -303.328125 308.5 -320.296875 L 328.046875 -320.296875 C 323.867188 -303.328125 319.6875 -285.25 315.5 -266.0625 C 311.320312 -246.875 307.078125 -227.988281 302.765625 -209.40625 C 298.460938 -190.832031 293.972656 -173.800781 289.296875 -158.3125 L 243.546875 0 Z M 131.375 0 "/></g></g><g transform="translate(637.458665, 732.705939)"><g><path d="M 45.390625 0 L 45.390625 -407.390625 L 152.03125 -407.390625 L 152.03125 -336.90625 L 155.71875 -336.90625 C 163.101562 -361.75 175.40625 -380.503906 192.625 -393.171875 C 209.84375 -405.847656 230.257812 -412.1875 253.875 -412.1875 C 259.78125 -412.1875 265.929688 -411.9375 272.328125 -411.4375 C 278.722656 -410.945312 284.257812 -410.210938 288.9375 -409.234375 L 288.9375 -311.8125 C 284.257812 -313.289062 277.304688 -314.457031 268.078125 -315.3125 C 258.859375 -316.175781 249.941406 -316.609375 241.328125 -316.609375 C 225.097656 -316.609375 210.398438 -313.039062 197.234375 -305.90625 C 184.078125 -298.769531 173.804688 -288.679688 166.421875 -275.640625 C 159.046875 -262.609375 155.359375 -247.238281 155.359375 -229.53125 L 155.359375 0 Z M 45.390625 0 "/></g></g></g><g fill="#ffffff" fill-opacity="1"><g transform="translate(930.453164, 732.705939)"><g><path d="M 161.25 7.75 C 135.175781 7.75 111.804688 3.195312 91.140625 -5.90625 C 70.484375 -15.007812 54.25 -28.597656 42.4375 -46.671875 C 30.625 -64.753906 24.71875 -87.207031 24.71875 -114.03125 C 24.71875 -136.90625 28.898438 -155.96875 37.265625 -171.21875 C 45.628906 -186.46875 57.066406 -198.765625 71.578125 -208.109375 C 86.097656 -217.460938 102.644531 -224.535156 121.21875 -229.328125 C 139.789062 -234.128906 159.285156 -237.515625 179.703125 -239.484375 C 203.566406 -241.941406 222.753906 -244.21875 237.265625 -246.3125 C 251.785156 -248.40625 262.363281 -251.664062 269 -256.09375 C 275.644531 -260.519531 278.96875 -267.160156 278.96875 -276.015625 L 278.96875 -277.859375 C 278.96875 -289.179688 276.445312 -298.835938 271.40625 -306.828125 C 266.363281 -314.828125 259.046875 -320.976562 249.453125 -325.28125 C 239.859375 -329.582031 228.171875 -331.734375 214.390625 -331.734375 C 200.367188 -331.734375 188.128906 -329.582031 177.671875 -325.28125 C 167.222656 -320.976562 158.738281 -315.195312 152.21875 -307.9375 C 145.695312 -300.675781 141.082031 -292.5 138.375 -283.40625 L 36.90625 -296.3125 C 42.5625 -320.914062 53.382812 -341.945312 69.375 -359.40625 C 85.363281 -376.875 105.78125 -390.222656 130.625 -399.453125 C 155.476562 -408.679688 183.769531 -413.296875 215.5 -413.296875 C 238.625 -413.296875 260.578125 -410.585938 281.359375 -405.171875 C 302.148438 -399.765625 320.664062 -391.398438 336.90625 -380.078125 C 353.144531 -368.765625 365.875 -354.4375 375.09375 -337.09375 C 384.320312 -319.75 388.9375 -299.019531 388.9375 -274.90625 L 388.9375 0 L 283.765625 0 L 283.765625 -56.828125 L 280.453125 -56.828125 C 273.804688 -44.035156 265.007812 -32.78125 254.0625 -23.0625 C 243.113281 -13.34375 230.015625 -5.773438 214.765625 -0.359375 C 199.515625 5.046875 181.675781 7.75 161.25 7.75 Z M 192.25 -69.375 C 209.71875 -69.375 224.96875 -72.816406 238 -79.703125 C 251.039062 -86.585938 261.25 -95.8125 268.625 -107.375 C 276.007812 -118.9375 279.703125 -131.976562 279.703125 -146.5 L 279.703125 -189.671875 C 276.265625 -187.703125 271.46875 -185.734375 265.3125 -183.765625 C 259.164062 -181.796875 252.15625 -180.070312 244.28125 -178.59375 C 236.414062 -177.125 228.484375 -175.773438 220.484375 -174.546875 C 212.484375 -173.316406 205.164062 -172.207031 198.53125 -171.21875 C 185.238281 -169.25 173.425781 -166.113281 163.09375 -161.8125 C 152.769531 -157.507812 144.773438 -151.726562 139.109375 -144.46875 C 133.453125 -137.207031 130.625 -128.164062 130.625 -117.34375 C 130.625 -107.007812 133.269531 -98.273438 138.5625 -91.140625 C 143.851562 -84.003906 151.109375 -78.59375 160.328125 -74.90625 C 169.554688 -71.21875 180.195312 -69.375 192.25 -69.375 Z M 192.25 -69.375 "/></g></g><g transform="translate(1364.409744, 732.705939)"><g><path d="M 45.390625 154.25 L 45.390625 -407.390625 L 153.515625 -407.390625 L 153.515625 -341.703125 L 158.3125 -341.703125 C 163.96875 -353.265625 171.710938 -364.519531 181.546875 -375.46875 C 191.390625 -386.414062 204 -395.457031 219.375 -402.59375 C 234.75 -409.726562 253.382812 -413.296875 275.28125 -413.296875 C 306.519531 -413.296875 334.75 -405.238281 359.96875 -389.125 C 385.1875 -373.007812 405.296875 -349.390625 420.296875 -318.265625 C 435.304688 -287.148438 442.8125 -248.835938 442.8125 -203.328125 C 442.8125 -158.554688 435.492188 -120.546875 420.859375 -89.296875 C 406.222656 -58.054688 386.234375 -34.191406 360.890625 -17.703125 C 335.554688 -1.222656 306.773438 7.015625 274.546875 7.015625 C 253.390625 7.015625 235.179688 3.507812 219.921875 -3.5 C 204.671875 -10.507812 192.0625 -19.425781 182.09375 -30.25 C 172.132812 -41.082031 164.207031 -52.398438 158.3125 -64.203125 L 155.359375 -64.203125 L 155.359375 154.25 Z M 241.703125 -81.546875 C 260.890625 -81.546875 277 -86.648438 290.03125 -96.859375 C 303.070312 -107.066406 312.972656 -121.332031 319.734375 -139.65625 C 326.503906 -157.988281 329.890625 -179.332031 329.890625 -203.6875 C 329.890625 -227.800781 326.503906 -248.957031 319.734375 -267.15625 C 312.972656 -285.363281 303.070312 -299.507812 290.03125 -309.59375 C 277 -319.6875 260.890625 -324.734375 241.703125 -324.734375 C 223.003906 -324.734375 206.953125 -319.75 193.546875 -309.78125 C 180.140625 -299.820312 169.929688 -285.800781 162.921875 -267.71875 C 155.910156 -249.632812 152.40625 -228.289062 152.40625 -203.6875 C 152.40625 -179.09375 155.96875 -157.691406 163.09375 -139.484375 C 170.226562 -121.273438 180.5 -107.066406 193.90625 -96.859375 C 207.320312 -86.648438 223.253906 -81.546875 241.703125 -81.546875 Z M 241.703125 -81.546875 "/></g></g><g transform="translate(1835.267398, 732.705939)"><g><path d="M 241.328125 0 L 98.890625 0 L 98.890625 -96.6875 L 235.796875 -96.6875 C 271.460938 -96.6875 301.289062 -103.082031 325.28125 -115.875 C 349.269531 -128.664062 367.289062 -148.28125 379.34375 -174.71875 C 391.394531 -201.164062 397.421875 -234.6875 397.421875 -275.28125 C 397.421875 -315.625 391.394531 -348.957031 379.34375 -375.28125 C 367.289062 -401.601562 349.332031 -421.160156 325.46875 -433.953125 C 301.601562 -446.742188 271.957031 -453.140625 236.53125 -453.140625 L 96.3125 -453.140625 L 96.3125 -549.828125 L 243.171875 -549.828125 C 298.523438 -549.828125 346.066406 -538.816406 385.796875 -516.796875 C 425.523438 -494.773438 456.148438 -463.222656 477.671875 -422.140625 C 499.203125 -381.066406 509.96875 -332.113281 509.96875 -275.28125 C 509.96875 -218.207031 499.265625 -169.128906 477.859375 -128.046875 C 456.460938 -86.960938 425.648438 -55.347656 385.421875 -33.203125 C 345.203125 -11.066406 297.171875 0 241.328125 0 Z M 160.515625 -549.828125 L 160.515625 0 L 47.609375 0 L 47.609375 -549.828125 Z M 160.515625 -549.828125 "/></g></g><g transform="translate(2377.344116, 732.705939)"><g><path d="M 45.390625 0 L 45.390625 -407.390625 L 155.359375 -407.390625 L 155.359375 0 Z M 100.375 -460.15625 C 83.40625 -460.15625 68.953125 -465.691406 57.015625 -476.765625 C 45.085938 -487.835938 39.125 -501.367188 39.125 -517.359375 C 39.125 -533.347656 45.085938 -546.875 57.015625 -557.9375 C 68.953125 -569.007812 83.40625 -574.546875 100.375 -574.546875 C 117.351562 -574.546875 131.742188 -569.007812 143.546875 -557.9375 C 155.359375 -546.875 161.265625 -533.347656 161.265625 -517.359375 C 161.265625 -501.367188 155.359375 -487.835938 143.546875 -476.765625 C 131.742188 -465.691406 117.351562 -460.15625 100.375 -460.15625 Z M 100.375 -460.15625 "/></g></g><g transform="translate(2578.085935, 732.705939)"><g><path d="M 45.390625 0 L 45.390625 -407.390625 L 152.03125 -407.390625 L 152.03125 -336.90625 L 155.71875 -336.90625 C 163.101562 -361.75 175.40625 -380.503906 192.625 -393.171875 C 209.84375 -405.847656 230.257812 -412.1875 253.875 -412.1875 C 259.78125 -412.1875 265.929688 -411.9375 272.328125 -411.4375 C 278.722656 -410.945312 284.257812 -410.210938 288.9375 -409.234375 L 288.9375 -311.8125 C 284.257812 -313.289062 277.304688 -314.457031 268.078125 -315.3125 C 258.859375 -316.175781 249.941406 -316.609375 241.328125 -316.609375 C 225.097656 -316.609375 210.398438 -313.039062 197.234375 -305.90625 C 184.078125 -298.769531 173.804688 -288.679688 166.421875 -275.640625 C 159.046875 -262.609375 155.359375 -247.238281 155.359375 -229.53125 L 155.359375 0 Z M 45.390625 0 "/></g></g></g><g fill="#ffffff" fill-opacity="1"><g transform="translate(2865.176246, 732.705939)"><g><path d="M 229.890625 8.125 C 188.316406 8.125 152.460938 -0.484375 122.328125 -17.703125 C 92.191406 -34.929688 68.941406 -59.289062 52.578125 -90.78125 C 36.222656 -122.269531 28.046875 -159.289062 28.046875 -201.84375 C 28.046875 -243.914062 36.160156 -280.753906 52.390625 -312.359375 C 68.628906 -343.972656 91.507812 -368.695312 121.03125 -386.53125 C 150.550781 -404.375 185.117188 -413.296875 224.734375 -413.296875 C 252.035156 -413.296875 277.367188 -408.863281 300.734375 -400 C 324.109375 -391.144531 344.585938 -378.046875 362.171875 -360.703125 C 379.765625 -343.359375 393.421875 -321.707031 403.140625 -295.75 C 412.859375 -269.800781 417.71875 -239.851562 417.71875 -205.90625 L 417.71875 -175.28125 L 71.953125 -175.28125 L 71.953125 -244.65625 L 364.21875 -244.65625 L 312.921875 -226.578125 C 312.921875 -247.734375 309.597656 -266.054688 302.953125 -281.546875 C 296.316406 -297.046875 286.539062 -309.039062 273.625 -317.53125 C 260.707031 -326.019531 244.773438 -330.265625 225.828125 -330.265625 C 206.890625 -330.265625 190.773438 -325.957031 177.484375 -317.34375 C 164.203125 -308.738281 154.054688 -296.929688 147.046875 -281.921875 C 140.035156 -266.921875 136.53125 -249.703125 136.53125 -230.265625 L 136.53125 -181.546875 C 136.53125 -158.671875 140.46875 -139.238281 148.34375 -123.25 C 156.21875 -107.257812 167.347656 -95.144531 181.734375 -86.90625 C 196.128906 -78.664062 212.921875 -74.546875 232.109375 -74.546875 C 245.148438 -74.546875 257.019531 -76.453125 267.71875 -80.265625 C 278.414062 -84.078125 287.515625 -89.609375 295.015625 -96.859375 C 302.523438 -104.117188 308.25 -113.039062 312.1875 -123.625 L 412.1875 -109.234375 C 405.789062 -85.609375 394.289062 -65 377.6875 -47.40625 C 361.082031 -29.820312 340.289062 -16.171875 315.3125 -6.453125 C 290.34375 3.265625 261.867188 8.125 229.890625 8.125 Z M 229.890625 8.125 "/></g></g><g transform="translate(3309.465129, 732.705939)"><g><path d="M 228.421875 8.125 C 187.578125 8.125 152.148438 -0.671875 122.140625 -18.265625 C 92.128906 -35.859375 68.941406 -60.457031 52.578125 -92.0625 C 36.222656 -123.675781 28.046875 -160.394531 28.046875 -202.21875 C 28.046875 -244.28125 36.222656 -281.179688 52.578125 -312.921875 C 68.941406 -344.660156 92.128906 -369.320312 122.140625 -386.90625 C 152.148438 -404.5 187.578125 -413.296875 228.421875 -413.296875 C 253.265625 -413.296875 276.078125 -410.035156 296.859375 -403.515625 C 317.648438 -396.992188 336.039062 -387.582031 352.03125 -375.28125 C 368.019531 -362.976562 381.117188 -348.15625 391.328125 -330.8125 C 401.546875 -313.46875 408.375 -293.972656 411.8125 -272.328125 L 308.5 -257.5625 C 306.28125 -268.144531 302.957031 -277.617188 298.53125 -285.984375 C 294.101562 -294.347656 288.566406 -301.539062 281.921875 -307.5625 C 275.285156 -313.59375 267.597656 -318.207031 258.859375 -321.40625 C 250.128906 -324.601562 240.351562 -326.203125 229.53125 -326.203125 C 210.09375 -326.203125 193.789062 -321.035156 180.625 -310.703125 C 167.46875 -300.367188 157.441406 -285.914062 150.546875 -267.34375 C 143.660156 -248.769531 140.21875 -227.1875 140.21875 -202.59375 C 140.21875 -178.238281 143.660156 -156.769531 150.546875 -138.1875 C 157.441406 -119.613281 167.46875 -105.097656 180.625 -94.640625 C 193.789062 -84.191406 210.09375 -78.96875 229.53125 -78.96875 C 240.351562 -78.96875 250.128906 -80.628906 258.859375 -83.953125 C 267.597656 -87.273438 275.347656 -92.007812 282.109375 -98.15625 C 288.867188 -104.300781 294.523438 -111.738281 299.078125 -120.46875 C 303.628906 -129.207031 306.890625 -139.113281 308.859375 -150.1875 L 412.1875 -135.0625 C 408.988281 -113.164062 402.285156 -93.484375 392.078125 -76.015625 C 381.867188 -58.546875 368.765625 -43.476562 352.765625 -30.8125 C 336.773438 -18.144531 318.265625 -8.488281 297.234375 -1.84375 C 276.203125 4.800781 253.265625 8.125 228.421875 8.125 Z M 228.421875 8.125 "/></g></g><g transform="translate(3748.587861, 732.705939)"><g><path d="M 254.25 -407.390625 L 254.25 -322.890625 L 7.015625 -322.890625 L 7.015625 -407.390625 Z M 66.421875 -507.390625 L 176.390625 -507.390625 L 176.390625 -120.671875 C 176.390625 -107.628906 179.28125 -98.09375 185.0625 -92.0625 C 190.84375 -86.039062 200.5 -83.03125 214.03125 -83.03125 C 218.945312 -83.03125 225.28125 -83.457031 233.03125 -84.3125 C 240.78125 -85.175781 246.742188 -85.976562 250.921875 -86.71875 L 263.109375 -2.953125 C 252.035156 -0.242188 240.472656 1.660156 228.421875 2.765625 C 216.367188 3.867188 204.679688 4.421875 193.359375 4.421875 C 151.535156 4.421875 119.921875 -5.226562 98.515625 -24.53125 C 77.117188 -43.84375 66.421875 -72.078125 66.421875 -109.234375 Z M 66.421875 -507.390625 "/></g></g></g><g fill="#ffffff" fill-opacity="1"><g transform="translate(4018.703688, 732.705939)"><g><path d="M 229.890625 8.125 C 188.316406 8.125 152.460938 -0.484375 122.328125 -17.703125 C 92.191406 -34.929688 68.941406 -59.289062 52.578125 -90.78125 C 36.222656 -122.269531 28.046875 -159.289062 28.046875 -201.84375 C 28.046875 -243.914062 36.160156 -280.753906 52.390625 -312.359375 C 68.628906 -343.972656 91.507812 -368.695312 121.03125 -386.53125 C 150.550781 -404.375 185.117188 -413.296875 224.734375 -413.296875 C 252.035156 -413.296875 277.367188 -408.863281 300.734375 -400 C 324.109375 -391.144531 344.585938 -378.046875 362.171875 -360.703125 C 379.765625 -343.359375 393.421875 -321.707031 403.140625 -295.75 C 412.859375 -269.800781 417.71875 -239.851562 417.71875 -205.90625 L 417.71875 -175.28125 L 71.953125 -175.28125 L 71.953125 -244.65625 L 364.21875 -244.65625 L 312.921875 -226.578125 C 312.921875 -247.734375 309.597656 -266.054688 302.953125 -281.546875 C 296.316406 -297.046875 286.539062 -309.039062 273.625 -317.53125 C 260.707031 -326.019531 244.773438 -330.265625 225.828125 -330.265625 C 206.890625 -330.265625 190.773438 -325.957031 177.484375 -317.34375 C 164.203125 -308.738281 154.054688 -296.929688 147.046875 -281.921875 C 140.035156 -266.921875 136.53125 -249.703125 136.53125 -230.265625 L 136.53125 -181.546875 C 136.53125 -158.671875 140.46875 -139.238281 148.34375 -123.25 C 156.21875 -107.257812 167.347656 -95.144531 181.734375 -86.90625 C 196.128906 -78.664062 212.921875 -74.546875 232.109375 -74.546875 C 245.148438 -74.546875 257.019531 -76.453125 267.71875 -80.265625 C 278.414062 -84.078125 287.515625 -89.609375 295.015625 -96.859375 C 302.523438 -104.117188 308.25 -113.039062 312.1875 -123.625 L 412.1875 -109.234375 C 405.789062 -85.609375 394.289062 -65 377.6875 -47.40625 C 361.082031 -29.820312 340.289062 -16.171875 315.3125 -6.453125 C 290.34375 3.265625 261.867188 8.125 229.890625 8.125 Z M 229.890625 8.125 "/></g></g></g></g></g></svg>
